<svg width="32" height="32" viewBox="0 0 32 32" fill="none" xmlns="http://www.w3.org/2000/svg">
<g id="vuesax/outline/arrow-left">
<g id="arrow-left">
<path id="Vector" d="M12.7619 25.0935C12.5085 25.0935 12.2552 25.0002 12.0552 24.8002L3.96187 16.7068C3.57521 16.3202 3.57521 15.6802 3.96187 15.2935L12.0552 7.20016C12.4419 6.81349 13.0819 6.81349 13.4685 7.20016C13.8552 7.58682 13.8552 8.22682 13.4685 8.61349L6.08187 16.0002L13.4685 23.3868C13.8552 23.7735 13.8552 24.4135 13.4685 24.8002C13.2819 25.0002 13.0152 25.0935 12.7619 25.0935Z" fill="#292D32"/>
<path id="Vector_2" d="M27.3345 17H4.89453C4.34786 17 3.89453 16.5467 3.89453 16C3.89453 15.4533 4.34786 15 4.89453 15H27.3345C27.8812 15 28.3345 15.4533 28.3345 16C28.3345 16.5467 27.8812 17 27.3345 17Z" fill="#292D32"/>
</g>
</g>
</svg>
