<svg width="32" height="32" viewBox="0 0 32 32" fill="none" xmlns="http://www.w3.org/2000/svg">
<path d="M16.0002 28.3332C15.7468 28.3332 15.4935 28.2398 15.2935 28.0398L7.20016 19.9465C6.81349 19.5598 6.81349 18.9198 7.20016 18.5332C7.58682 18.1465 8.22682 18.1465 8.61349 18.5332L16.0002 25.9198L23.3868 18.5332C23.7735 18.1465 24.4135 18.1465 24.8002 18.5332C25.1868 18.9198 25.1868 19.5598 24.8002 19.9465L16.7068 28.0398C16.5068 28.2398 16.2535 28.3332 16.0002 28.3332Z" fill="#134153"/>
<path d="M16 28.107C15.4533 28.107 15 27.6537 15 27.107V4.66699C15 4.12033 15.4533 3.66699 16 3.66699C16.5467 3.66699 17 4.12033 17 4.66699V27.107C17 27.6537 16.5467 28.107 16 28.107Z" fill="#134153"/>
</svg>
