<svg width="100" height="95" viewBox="0 0 100 95" fill="none" xmlns="http://www.w3.org/2000/svg">
<g filter="url(#filter0_d_907_4195)">
<mask id="mask0_907_4195" style="mask-type:alpha" maskUnits="userSpaceOnUse" x="0" y="-1" width="100" height="95">
<path d="M30.5514 79.4492L37.5007 87.5901C37.5007 87.5901 43.9376 93.8098 49.0836 93.9034C52.8326 93.9715 56.6121 91.9928 58.184 90.8298C59.7559 89.6668 67.0955 80.3174 73.9029 74.7973C78.7691 70.8513 82.0088 69.3346 87.1398 65.7427C89.6693 63.972 91.3046 63.2494 93.5928 61.1739C95.1702 59.7431 96.3601 59.0931 97.3157 57.1865C98.2329 55.3565 97.9566 54.0542 98.3084 52.0362C98.7537 49.4828 99.3839 46.8859 99.3012 45.4737C99.2185 44.0615 98.2203 42.7884 97.8121 40.9879C97.2576 38.5423 98.3107 36.8543 97.2329 34.5916C96.4708 32.9915 95.1943 32.6535 94.3374 31.1026C93.0367 28.7489 94.4793 26.5102 92.8482 24.374C91.616 22.7602 89.8437 23.0278 88.5462 21.4665C87.0392 19.6533 88.02 17.5255 86.3952 15.8178C84.8271 14.1696 82.8853 14.8172 81.1004 13.4088C78.9299 11.696 79.5007 8.8634 77.0466 7.59389C75.1404 6.6078 73.5526 7.87162 71.5864 7.0124C69.1354 5.94134 69.3767 2.77997 66.788 2.11129C64.689 1.56911 63.4486 3.55644 61.3278 3.10812C58.9566 2.60689 58.7434 -0.170188 56.3639 -0.630016C53.6852 -1.14768 52.4725 1.67958 49.7455 1.61287C47.2012 1.55062 46.1517 -0.922253 43.6234 -0.630016C41.0329 -0.33059 40.6492 2.65806 38.0804 3.10812C35.914 3.48768 34.6802 1.61482 32.5374 2.11129C29.8416 2.73589 29.8766 5.8545 27.3254 6.92933C25.4294 7.72811 23.9298 6.70962 22.1134 7.67696C19.6745 8.97576 20.3765 11.9848 18.0595 13.4918C16.516 14.4957 15.0537 13.8665 13.5921 14.9871C11.3836 16.6803 12.7693 19.6024 10.7792 21.5496C9.47338 22.8274 7.9054 22.4798 6.72542 23.8756C5.00305 25.9129 6.63417 28.194 5.48446 30.6042C4.56884 32.5237 3.00756 32.9665 2.17523 34.9238C1.1311 37.3792 2.74154 39.3264 1.59557 41.7356C1.16301 42.6449 0.189145 43.8954 0.189145 43.8954C0.114035 44.9958 0.114035 45.6193 0.189145 46.7197C0.319556 48.6304 0.816098 49.6439 1.09918 51.5378C1.35019 53.2171 1.00544 54.266 1.59557 55.8574C2.10226 57.2238 2.68523 57.8666 3.58111 59.0141C5.87341 61.9501 8.19197 62.5455 11.1923 64.7459C16.1575 68.3872 19.3147 69.9219 24.0984 73.8005C26.6995 75.9094 27.8375 76.27 30.5514 79.4492Z" fill="#FEFEFE"/>
</mask>
<g mask="url(#mask0_907_4195)">
<rect x="-0.378906" y="-1.08594" width="99.63" height="135.624" fill="#EEF8FB"/>
</g>
</g>
<defs>
<filter id="filter0_d_907_4195" x="-5.89402" y="-4.43152" width="117.274" height="112.755" filterUnits="userSpaceOnUse" color-interpolation-filters="sRGB">
<feFlood flood-opacity="0" result="BackgroundImageFix"/>
<feColorMatrix in="SourceAlpha" type="matrix" values="0 0 0 0 0 0 0 0 0 0 0 0 0 0 0 0 0 0 127 0" result="hardAlpha"/>
<feOffset dx="3.05156" dy="5.34023"/>
<feGaussianBlur stdDeviation="4.5392"/>
<feComposite in2="hardAlpha" operator="out"/>
<feColorMatrix type="matrix" values="0 0 0 0 0 0 0 0 0 0 0 0 0 0 0 0 0 0 0.12 0"/>
<feBlend mode="normal" in2="BackgroundImageFix" result="effect1_dropShadow_907_4195"/>
<feBlend mode="normal" in="SourceGraphic" in2="effect1_dropShadow_907_4195" result="shape"/>
</filter>
</defs>
</svg>
