<svg width="147" height="132" viewBox="0 0 147 132" fill="none" xmlns="http://www.w3.org/2000/svg">
<path d="M43.8762 123.482C43.8762 123.482 41.9113 125.756 42.2287 127.376C42.6569 129.562 47.171 130.222 47.171 130.222L57.43 131.644H65.3676H71.3582L81.8419 130.222H90.8278H98.2413C98.2413 130.222 100.813 132.442 102.285 131.644C103.389 131.046 103.444 130.008 103.783 128.799C104.216 127.25 103.783 124.68 103.783 124.68V120.637C103.783 120.637 103.582 117.614 103.783 115.694C104.186 111.841 106.853 106.259 106.853 106.259L110.522 102.74L116.063 100.268H119.733C119.733 100.268 125.667 100.339 129.018 98.8457C132.193 97.4308 135.982 93.3043 135.982 93.3043C135.982 93.3043 143.037 88.0333 143.92 83.0453C144.251 81.1736 143.744 80.0706 143.92 78.1779C144.141 75.7965 145.193 72.1873 145.193 72.1873V67.0952C145.193 67.0952 146.92 63.4168 146.017 61.3292C145.514 60.1677 143.92 58.8581 143.92 58.8581L140.251 52.1186C140.251 52.1186 140.749 48.3239 140.251 45.9782C139.541 42.6357 135.982 38.3401 135.982 38.3401L132.912 37.2918L130.216 32.4244L129.018 26.4337L125.499 21.117L119.733 17.2231C119.733 17.2231 115.71 15.775 113.817 13.9283C111.839 11.998 110.297 7.78784 110.297 7.78784L100.263 3.07021C100.263 3.07021 96.0501 4.48429 93.299 4.26834C91.404 4.11959 88.5814 3.07021 88.5814 3.07021L82.8154 0H76.0759C76.0759 0 72.8582 2.95041 70.3099 3.07021C68.0089 3.17838 64.7685 1.04836 64.7685 1.04836C64.7685 1.04836 60.8373 0.542911 58.4035 1.04836C55.5475 1.64149 51.664 4.26834 51.664 4.26834L47.5454 6.58971H41.405C41.405 6.58971 34.7364 8.36159 31.7451 11.3073C29.7744 13.248 27.8512 17.2231 27.8512 17.2231L21.3364 21.117C21.3364 21.117 16.3136 23.522 14.7466 26.4337C13.6133 28.5399 13.4736 32.4244 13.4736 32.4244C13.4736 32.4244 13.0285 35.6427 11.9011 37.2918C10.7386 38.9921 7.78252 40.5866 7.78252 40.5866C7.78252 40.5866 4.75784 43.5307 3.8886 45.9782C2.85117 48.8993 3.8886 53.9158 3.8886 53.9158C3.8886 53.9158 4.72009 58.5561 3.8886 61.3292C3.23021 63.5251 1.27635 64.1497 0.96816 66.4213C0.560786 69.424 3.8886 73.6101 3.8886 73.6101C3.8886 73.6101 7.47256 88.8132 14.7466 94.3527C17.8265 96.6981 20.0868 97.1832 23.5828 98.8457C26.9642 100.454 32.3442 102.74 32.3442 102.74C32.3442 102.74 39.1949 103.12 41.1804 106.259C42.4807 108.315 41.5312 110.069 42.2287 112.4C43.1214 115.382 46.0866 116.503 45.6734 119.588C45.451 121.248 43.8762 123.482 43.8762 123.482Z" fill="#0F3443"/>
</svg>
