<svg width="16" height="14" viewBox="0 0 16 14" fill="none" xmlns="http://www.w3.org/2000/svg">
<path d="M1.09992 6.09647C5.39487 4.26188 8.25885 3.05241 9.69185 2.46805C13.7834 0.799594 14.6335 0.509765 15.1877 0.500093C15.3095 0.49809 15.582 0.527703 15.7586 0.66813C15.9076 0.786703 15.9486 0.94688 15.9683 1.0593C15.9879 1.17172 16.0123 1.42782 15.9929 1.62793C15.7712 3.91192 14.8118 9.45457 14.3237 12.0127C14.1172 13.0951 13.7105 13.458 13.3168 13.4936C12.4613 13.5707 11.8116 12.9392 10.9829 12.4067C9.68624 11.5733 8.95369 11.0545 7.69503 10.2414C6.24042 9.30157 7.18338 8.78505 8.01236 7.94091C8.22931 7.71999 11.999 4.35836 12.0719 4.05341C12.0811 4.01527 12.0895 3.87311 12.0034 3.79804C11.9172 3.72297 11.7901 3.74864 11.6983 3.76906C11.5683 3.79799 9.4968 5.14035 5.48389 7.79611C4.89591 8.19195 4.36333 8.38482 3.88616 8.37472C3.36012 8.36357 2.34822 8.08311 1.59598 7.84338C0.673328 7.54933 -0.0599784 7.39387 0.00387615 6.8945C0.0371355 6.63439 0.402482 6.36838 1.09992 6.09647Z" fill="#EDFCF2"/>
</svg>
