<svg width="112" height="112" viewBox="0 0 112 112" fill="none" xmlns="http://www.w3.org/2000/svg">
<g id="material-symbols:play-circle-outline" clip-path="url(#clip0_824_5370)">
<g id="Vector" filter="url(#filter0_d_824_5370)">
<path d="M44.332 76.9997L76.9987 55.9997L44.332 34.9997V76.9997ZM55.9987 102.666C49.5431 102.666 43.4765 101.441 37.7987 98.989C32.1209 96.5374 27.182 93.2132 22.982 89.0163C18.782 84.8163 15.4578 79.8774 13.0094 74.1997C10.5609 68.5219 9.33514 62.4552 9.33203 55.9997C9.33203 49.5441 10.5578 43.4775 13.0094 37.7997C15.4609 32.1219 18.7851 27.183 22.982 22.983C27.182 18.783 32.1209 15.4588 37.7987 13.0103C43.4765 10.5619 49.5431 9.33612 55.9987 9.33301C62.4543 9.33301 68.5209 10.5588 74.1987 13.0103C79.8765 15.4619 84.8154 18.7861 89.0154 22.983C93.2154 27.183 96.5411 32.1219 98.9927 37.7997C101.444 43.4775 102.668 49.5441 102.665 55.9997C102.665 62.4552 101.44 68.5219 98.988 74.1997C96.5365 79.8774 93.2123 84.8163 89.0154 89.0163C84.8154 93.2163 79.8765 96.5421 74.1987 98.9937C68.5209 101.445 62.4543 102.669 55.9987 102.666ZM55.9987 93.333C66.4209 93.333 75.2487 89.7163 82.482 82.483C89.7154 75.2497 93.332 66.4219 93.332 55.9997C93.332 45.5774 89.7154 36.7497 82.482 29.5163C75.2487 22.283 66.4209 18.6663 55.9987 18.6663C45.5765 18.6663 36.7487 22.283 29.5154 29.5163C22.282 36.7497 18.6654 45.5774 18.6654 55.9997C18.6654 66.4219 22.282 75.2497 29.5154 82.483C36.7487 89.7163 45.5765 93.333 55.9987 93.333Z" fill="white"/>
</g>
</g>
<defs>
<filter id="filter0_d_824_5370" x="9.33203" y="9.33301" width="105.332" height="101.333" filterUnits="userSpaceOnUse" color-interpolation-filters="sRGB">
<feFlood flood-opacity="0" result="BackgroundImageFix"/>
<feColorMatrix in="SourceAlpha" type="matrix" values="0 0 0 0 0 0 0 0 0 0 0 0 0 0 0 0 0 0 127 0" result="hardAlpha"/>
<feOffset dx="8" dy="4"/>
<feGaussianBlur stdDeviation="2"/>
<feComposite in2="hardAlpha" operator="out"/>
<feColorMatrix type="matrix" values="0 0 0 0 0 0 0 0 0 0 0 0 0 0 0 0 0 0 0.44 0"/>
<feBlend mode="normal" in2="BackgroundImageFix" result="effect1_dropShadow_824_5370"/>
<feBlend mode="normal" in="SourceGraphic" in2="effect1_dropShadow_824_5370" result="shape"/>
</filter>
<clipPath id="clip0_824_5370">
<rect width="112" height="112" fill="white"/>
</clipPath>
</defs>
</svg>
