<svg width="17" height="17" viewBox="0 0 17 17" fill="none" xmlns="http://www.w3.org/2000/svg">
<g id="Play">
<path id="Vector" d="M4.01877 15.2199C3.87807 15.2199 3.74314 15.164 3.64366 15.0645C3.54417 14.965 3.48828 14.8301 3.48828 14.6894V3.01868C3.4883 2.9265 3.51233 2.83591 3.55802 2.75584C3.60371 2.67578 3.66948 2.609 3.74883 2.5621C3.82819 2.51519 3.9184 2.48977 4.01057 2.48834C4.10274 2.48692 4.1937 2.50954 4.27446 2.55397L14.8842 8.38934C14.9674 8.43513 15.0368 8.50241 15.0851 8.58415C15.1334 8.66589 15.1588 8.7591 15.1588 8.85404C15.1588 8.94899 15.1334 9.0422 15.0851 9.12394C15.0368 9.20568 14.9674 9.27296 14.8842 9.31875L4.27446 15.1541C4.19614 15.1972 4.10818 15.2199 4.01877 15.2199Z" fill="#F6F6F6"/>
</g>
</svg>
