<svg width="146" height="132" viewBox="0 0 146 132" fill="none" xmlns="http://www.w3.org/2000/svg">
<path d="M43.2863 123.482C43.2863 123.482 41.3215 125.756 41.6389 127.376C42.067 129.562 46.5812 130.222 46.5812 130.222L56.8402 131.644H64.7778H70.7684L81.252 130.222H90.238H97.6514C97.6514 130.222 100.223 132.442 101.695 131.644C102.799 131.046 102.855 130.008 103.193 128.799C103.626 127.25 103.193 124.68 103.193 124.68V120.637C103.193 120.637 102.992 117.614 103.193 115.694C103.596 111.841 106.263 106.259 106.263 106.259L109.932 102.74L115.474 100.268H119.143C119.143 100.268 125.078 100.339 128.428 98.8457C131.603 97.4308 135.392 93.3043 135.392 93.3043C135.392 93.3043 142.447 88.0333 143.33 83.0453C143.662 81.1736 143.154 80.0706 143.33 78.1779C143.551 75.7965 144.603 72.1873 144.603 72.1873V67.0952C144.603 67.0952 146.33 63.4168 145.427 61.3292C144.924 60.1677 143.33 58.8581 143.33 58.8581L139.661 52.1186C139.661 52.1186 140.159 48.3239 139.661 45.9782C138.951 42.6357 135.392 38.3401 135.392 38.3401L132.322 37.2918L129.626 32.4244L128.428 26.4337L124.909 21.117L119.143 17.2231C119.143 17.2231 115.12 15.775 113.227 13.9283C111.249 11.998 109.708 7.78784 109.708 7.78784L99.6733 3.07021C99.6733 3.07021 95.4603 4.48429 92.7091 4.26834C90.8141 4.11959 87.9915 3.07021 87.9915 3.07021L82.2255 0H75.486C75.486 0 72.2683 2.95041 69.72 3.07021C67.419 3.17838 64.1787 1.04836 64.1787 1.04836C64.1787 1.04836 60.2474 0.542911 57.8136 1.04836C54.9577 1.64149 51.0742 4.26834 51.0742 4.26834L46.9556 6.58971H40.8152C40.8152 6.58971 34.1466 8.36159 31.1553 11.3073C29.1846 13.248 27.2613 17.2231 27.2613 17.2231L20.7465 21.117C20.7465 21.117 15.7237 23.522 14.1568 26.4337C13.0234 28.5399 12.8838 32.4244 12.8838 32.4244C12.8838 32.4244 12.4386 35.6427 11.3112 37.2918C10.1488 38.9921 7.19268 40.5866 7.19268 40.5866C7.19268 40.5866 4.16799 43.5307 3.29876 45.9782C2.26132 48.8993 3.29876 53.9158 3.29876 53.9158C3.29876 53.9158 4.13025 58.5561 3.29876 61.3292C2.64037 63.5251 0.686503 64.1497 0.378317 66.4213C-0.0290574 69.424 3.29876 73.6101 3.29876 73.6101C3.29876 73.6101 6.88272 88.8132 14.1568 94.3527C17.2366 96.6981 19.4969 97.1832 22.993 98.8457C26.3744 100.454 31.7543 102.74 31.7543 102.74C31.7543 102.74 38.605 103.12 40.5905 106.259C41.8909 108.315 40.9413 110.069 41.6389 112.4C42.5315 115.382 45.4967 116.503 45.0835 119.588C44.8612 121.248 43.2863 123.482 43.2863 123.482Z" fill="#EEF8FB"/>
</svg>
