<svg width="348" height="315" viewBox="0 0 348 315" fill="none" xmlns="http://www.w3.org/2000/svg">
<path d="M102.6 295.029C102.6 295.029 97.9057 300.461 98.664 304.332C99.6869 309.554 110.472 311.131 110.472 311.131L134.984 314.53H153.948H168.261L193.309 311.131H214.779H232.491C232.491 311.131 238.636 316.436 242.153 314.53C244.791 313.101 244.923 310.621 245.731 307.732C246.766 304.031 245.731 297.891 245.731 297.891V288.23C245.731 288.23 245.251 281.008 245.731 276.422C246.694 267.214 253.067 253.879 253.067 253.879L261.833 245.47L275.073 239.565H283.84C283.84 239.565 298.019 239.734 306.025 236.166C313.61 232.786 322.664 222.926 322.664 222.926C322.664 222.926 339.519 210.333 341.629 198.415C342.421 193.943 341.209 191.308 341.629 186.786C342.158 181.096 344.67 172.473 344.67 172.473V160.307C344.67 160.307 348.797 151.518 346.638 146.53C345.438 143.755 341.629 140.626 341.629 140.626L332.862 124.524C332.862 124.524 334.052 115.457 332.862 109.853C331.167 101.867 322.664 91.6038 322.664 91.6038L315.329 89.099L308.888 77.4696L306.025 63.1565L297.616 50.4537L283.84 41.1502C283.84 41.1502 274.228 37.6903 269.706 33.278C264.979 28.6661 261.297 18.607 261.297 18.607L237.322 7.33546C237.322 7.33546 227.256 10.714 220.683 10.1981C216.156 9.84268 209.412 7.33546 209.412 7.33546L195.635 0H179.533C179.533 0 171.845 7.04924 165.757 7.33546C160.259 7.59392 152.517 2.50479 152.517 2.50479C152.517 2.50479 143.124 1.29714 137.309 2.50479C130.486 3.92193 121.207 10.1981 121.207 10.1981L111.367 15.7444H96.696C96.696 15.7444 80.7631 19.9778 73.6161 27.016C68.9077 31.6527 64.3126 41.1502 64.3126 41.1502L48.7471 50.4537C48.7471 50.4537 36.7465 56.1996 33.0027 63.1565C30.2948 68.1886 29.9612 77.4696 29.9612 77.4696C29.9612 77.4696 28.8976 85.1591 26.204 89.099C23.4266 93.1616 16.3637 96.9712 16.3637 96.9712C16.3637 96.9712 9.13704 104.005 7.06022 109.853C4.58155 116.832 7.06022 128.818 7.06022 128.818C7.06022 128.818 9.04686 139.905 7.06022 146.53C5.48717 151.777 0.818919 153.269 0.0825882 158.696C-0.890727 165.871 7.06022 175.872 7.06022 175.872C7.06022 175.872 15.6232 212.196 33.0027 225.431C40.3612 231.035 45.7616 232.194 54.1145 236.166C62.1934 240.008 75.0474 245.47 75.0474 245.47C75.0474 245.47 91.4154 246.378 96.1592 253.879C99.2661 258.791 96.9974 262.981 98.664 268.549C100.797 275.675 107.881 278.353 106.894 285.725C106.363 289.691 102.6 295.029 102.6 295.029Z" fill="#134153"/>
</svg>
